<svg xmlns="http://www.w3.org/2000/svg" width="496" height="472" viewBox="0 0 496 472">
  <g id="First_aid_kit" data-name="First aid kit" transform="translate(-8 -16)">
    <rect id="Rectangle_522" data-name="Rectangle 522" width="480" height="320" rx="32" transform="translate(16 160)" fill="#d80027"/>
    <g id="Group_877" data-name="Group 877">
      <path id="Path_1665" data-name="Path 1665" d="M352,288v64H288v64H224V352H160V288h64V224h64v64Z" fill="#e0e0e2"/>
      <path id="Path_1666" data-name="Path 1666" d="M80,136h96v24H80Z" fill="#e0e0e2"/>
      <path id="Path_1667" data-name="Path 1667" d="M336,136h96v24H336Z" fill="#e0e0e2"/>
    </g>
    <path id="Path_1668" data-name="Path 1668" d="M400,136H368V104a48.054,48.054,0,0,0-48-48H192a48.054,48.054,0,0,0-48,48v32H112V104a80.091,80.091,0,0,1,80-80H320a80.091,80.091,0,0,1,80,80Z" fill="#ffeb99"/>
    <path id="Path_1669" data-name="Path 1669" d="M464,152H440V136a8,8,0,0,0-8-8H408V104a88.1,88.1,0,0,0-88-88H192a88.1,88.1,0,0,0-88,88v24H80a8,8,0,0,0-8,8v16H48A40.045,40.045,0,0,0,8,192V448a40.045,40.045,0,0,0,40,40H464a40.045,40.045,0,0,0,40-40V192A40.045,40.045,0,0,0,464,152Zm-40,0H344v-8h80Zm-240,0V136a8,8,0,0,0-8-8H152V104a40.045,40.045,0,0,1,40-40H320a40.045,40.045,0,0,1,40,40v24H336a8,8,0,0,0-8,8v16Zm-64-48a72.081,72.081,0,0,1,72-72H320a72.081,72.081,0,0,1,72,72v24H376V104a56.063,56.063,0,0,0-56-56H192a56.063,56.063,0,0,0-56,56v24H120ZM88,144h80v8H88ZM488,448a24.027,24.027,0,0,1-24,24H48a24.027,24.027,0,0,1-24-24V192a24.027,24.027,0,0,1,24-24H464a24.027,24.027,0,0,1,24,24Z"/>
    <path id="Path_1670" data-name="Path 1670" d="M352,280H296V224a8,8,0,0,0-8-8H224a8,8,0,0,0-8,8v56H160a8,8,0,0,0-8,8v64a8,8,0,0,0,8,8h56v56a8,8,0,0,0,8,8h64a8,8,0,0,0,8-8V360h56a8,8,0,0,0,8-8V288A8,8,0,0,0,352,280Zm-8,64H288a8,8,0,0,0-8,8v56H232V352a8,8,0,0,0-8-8H168V296h56a8,8,0,0,0,8-8V232h48v56a8,8,0,0,0,8,8h56Z"/>
    <path id="Path_1671" data-name="Path 1671" d="M112,184H48a8,8,0,0,0,0,16h64a8,8,0,0,0,0-16Z"/>
    <path id="Path_1672" data-name="Path 1672" d="M144,184h-8a8,8,0,0,0,0,16h8a8,8,0,0,0,0-16Z"/>
  </g>
</svg>
