<svg id="_004-animal" data-name="004-animal" xmlns="http://www.w3.org/2000/svg" width="496" height="496" viewBox="0 0 496 496">
  <g id="Group_868" data-name="Group 868">
    <path id="Path_1439" data-name="Path 1439" d="M264,400c0-48.6-42.98-88-96-88s-96,39.4-96,88,42.98,88,96,88S264,448.6,264,400Zm0,0" fill="#754c29"/>
    <path id="Path_1440" data-name="Path 1440" d="M152,268a28,28,0,1,1-28-28A28,28,0,0,1,152,268Zm0,0" fill="#754c29"/>
    <path id="Path_1441" data-name="Path 1441" d="M64,332a28,28,0,1,1-28-28A28,28,0,0,1,64,332Zm0,0" fill="#754c29"/>
    <path id="Path_1442" data-name="Path 1442" d="M248,268a28,28,0,1,1-28-28A28,28,0,0,1,248,268Zm0,0" fill="#754c29"/>
    <path id="Path_1443" data-name="Path 1443" d="M328,332a28,28,0,1,1-28-28A28,28,0,0,1,328,332Zm0,0" fill="#754c29"/>
    <path id="Path_1444" data-name="Path 1444" d="M424,168c0-48.6-42.98-88-96-88s-96,39.4-96,88,42.98,88,96,88S424,216.6,424,168Zm0,0" fill="#754c29"/>
    <path id="Path_1445" data-name="Path 1445" d="M312,36A28,28,0,1,1,284,8,28,28,0,0,1,312,36Zm0,0" fill="#754c29"/>
    <path id="Path_1446" data-name="Path 1446" d="M224,100a28,28,0,1,1-28-28A28,28,0,0,1,224,100Zm0,0" fill="#754c29"/>
    <path id="Path_1447" data-name="Path 1447" d="M408,36A28,28,0,1,1,380,8,28,28,0,0,1,408,36Zm0,0" fill="#754c29"/>
    <path id="Path_1448" data-name="Path 1448" d="M488,100a28,28,0,1,1-28-28A28,28,0,0,1,488,100Zm0,0" fill="#754c29"/>
  </g>
  <path id="Path_1449" data-name="Path 1449" d="M168,304c-57.344,0-104,43.063-104,96s46.656,96,104,96,104-43.062,104-96S225.344,304,168,304Zm0,176c-48.52,0-88-35.887-88-80s39.48-80,88-80,88,35.887,88,80S216.52,480,168,480Zm0,0" fill="#231f20"/>
  <path id="Path_1450" data-name="Path 1450" d="M124,304a36,36,0,1,0-36-36A36,36,0,0,0,124,304Zm0-56a20,20,0,1,1-20,20A20,20,0,0,1,124,248Zm0,0" fill="#231f20"/>
  <path id="Path_1451" data-name="Path 1451" d="M36,296a36,36,0,1,0,36,36A36,36,0,0,0,36,296Zm0,56a20,20,0,1,1,20-20A20,20,0,0,1,36,352Zm0,0" fill="#231f20"/>
  <path id="Path_1452" data-name="Path 1452" d="M184,268a36,36,0,1,0,36-36A36,36,0,0,0,184,268Zm36-20a20,20,0,1,1-20,20A20,20,0,0,1,220,248Zm0,0" fill="#231f20"/>
  <path id="Path_1453" data-name="Path 1453" d="M300,296a36,36,0,1,0,36,36A36,36,0,0,0,300,296Zm0,56a20,20,0,1,1,20-20A20,20,0,0,1,300,352Zm0,0" fill="#231f20"/>
  <path id="Path_1454" data-name="Path 1454" d="M328,72c-57.344,0-104,43.063-104,96s46.656,96,104,96,104-43.062,104-96S385.344,72,328,72Zm0,176c-48.52,0-88-35.887-88-80s39.48-80,88-80,88,35.887,88,80S376.52,248,328,248Zm0,0" fill="#231f20"/>
  <path id="Path_1455" data-name="Path 1455" d="M284,72a36,36,0,1,0-36-36A36,36,0,0,0,284,72Zm0-56a20,20,0,1,1-20,20A20,20,0,0,1,284,16Zm0,0" fill="#231f20"/>
  <path id="Path_1456" data-name="Path 1456" d="M196,136a36,36,0,1,0-36-36A36,36,0,0,0,196,136Zm0-56a20,20,0,1,1-20,20A20,20,0,0,1,196,80Zm0,0" fill="#231f20"/>
  <path id="Path_1457" data-name="Path 1457" d="M380,72a36,36,0,1,0-36-36A36,36,0,0,0,380,72Zm0-56a20,20,0,1,1-20,20A20,20,0,0,1,380,16Zm0,0" fill="#231f20"/>
  <path id="Path_1458" data-name="Path 1458" d="M460,64a36,36,0,1,0,36,36A36,36,0,0,0,460,64Zm0,56a20,20,0,1,1,20-20A20,20,0,0,1,460,120Zm0,0" fill="#231f20"/>
</svg>
