<svg xmlns="http://www.w3.org/2000/svg" width="496" height="408" viewBox="0 0 496 408">
  <g id="Boat" transform="translate(-8 -52)">
    <path id="Path_1389" data-name="Path 1389" d="M456,356l-21.33,64H173.33L152,356Z" fill="#1a6fb0"/>
    <path id="Path_1390" data-name="Path 1390" d="M434.67,420,424,452H184l-10.67-32Z" fill="#ff5023"/>
    <path id="Path_1391" data-name="Path 1391" d="M184,308H288V172Z" fill="#acabb1"/>
    <path id="Path_1392" data-name="Path 1392" d="M428.706,308H288V124Z" fill="#e0e0e2"/>
    <circle id="Ellipse_78" data-name="Ellipse 78" cx="48" cy="48" r="48" transform="translate(88 92)" fill="#ffda44"/>
    <path id="Path_1393" data-name="Path 1393" d="M464,444H435.1l28.49-85.47A8,8,0,0,0,456,348H296V316H428.706a8,8,0,0,0,6.355-12.86l-140.706-184A8,8,0,0,0,280,124v45.292L177.645,303.141A8,8,0,0,0,184,316h96v32H152a8,8,0,0,0-7.589,10.53L172.9,444H16a8,8,0,0,0,0,16H464a8,8,0,0,0,0-16ZM296,147.631,412.518,300H296Zm-16,48V300H200.188ZM444.9,364l-16,48H179.1l-16-48ZM189.766,444l-5.333-16H423.567l-5.333,16Z"/>
    <path id="Path_1394" data-name="Path 1394" d="M496,444h-8a8,8,0,0,0,0,16h8a8,8,0,0,0,0-16Z"/>
    <path id="Path_1395" data-name="Path 1395" d="M136,196a56,56,0,1,0-56-56,56,56,0,0,0,56,56Zm0-96a40,40,0,1,1-40,40,40,40,0,0,1,40-40Z"/>
    <path id="Path_1396" data-name="Path 1396" d="M136,76a8,8,0,0,0,8-8V60a8,8,0,0,0-16,0v8A8,8,0,0,0,136,76Z"/>
    <path id="Path_1397" data-name="Path 1397" d="M128,212v8a8,8,0,0,0,16,0v-8a8,8,0,0,0-16,0Z"/>
    <path id="Path_1398" data-name="Path 1398" d="M208,148h8a8,8,0,0,0,0-16h-8a8,8,0,0,0,0,16Z"/>
    <path id="Path_1399" data-name="Path 1399" d="M56,148h8a8,8,0,0,0,0-16H56a8,8,0,0,0,0,16Z"/>
    <path id="Path_1400" data-name="Path 1400" d="M186.912,97.088a7.974,7.974,0,0,0,5.656-2.343l5.657-5.657a8,8,0,1,0-11.313-11.313l-5.657,5.657a8,8,0,0,0,5.657,13.656Z"/>
    <path id="Path_1401" data-name="Path 1401" d="M79.432,185.255l-5.657,5.657a8,8,0,1,0,11.313,11.313l5.657-5.657a8,8,0,1,0-11.313-11.313Z"/>
    <path id="Path_1402" data-name="Path 1402" d="M192.568,185.255a8,8,0,1,0-11.313,11.313l5.657,5.657a8,8,0,1,0,11.313-11.313Z"/>
    <path id="Path_1403" data-name="Path 1403" d="M79.432,94.745A8,8,0,1,0,90.745,83.432l-5.657-5.657A8,8,0,1,0,73.775,89.088Z"/>
  </g>
</svg>
