<svg xmlns="http://www.w3.org/2000/svg" width="496" height="384" viewBox="0 0 496 384">
  <g id="Pallet" transform="translate(-8 -64)">
    <path id="Path_1476" data-name="Path 1476" d="M248,296H360V408H248Z" fill="#806749"/>
    <path id="Path_1477" data-name="Path 1477" d="M328,352l-24-16-24,16V296h48Z" fill="#ffda44"/>
    <path id="Path_1478" data-name="Path 1478" d="M136,296H248V408H136Z" fill="#806749"/>
    <path id="Path_1479" data-name="Path 1479" d="M216,352l-24-16-24,16V296h48Z" fill="#ffda44"/>
    <path id="Path_1480" data-name="Path 1480" d="M136,184H248V296H136Z" fill="#806749"/>
    <path id="Path_1481" data-name="Path 1481" d="M216,240l-24-16-24,16V184h48Z" fill="#ffda44"/>
    <path id="Path_1482" data-name="Path 1482" d="M16,408H496v32H16Z" fill="#57565c"/>
    <path id="Path_1483" data-name="Path 1483" d="M272,208h24V144h64v64h24l-56,64Z" fill="#d80027"/>
    <path id="Path_1484" data-name="Path 1484" d="M496,400H368V296a8,8,0,0,0-8-8H256V184a8,8,0,0,0-8-8H136a8,8,0,0,0-8,8V400H16a8,8,0,0,0-8,8v32a8,8,0,0,0,8,8H496a8,8,0,0,0,8-8V408A8,8,0,0,0,496,400Zm-144,0H256V304h16v48a8,8,0,0,0,12.438,6.656L304,345.615l19.562,13.041A8,8,0,0,0,336,352V304h16Zm-32-96v33.052l-11.562-7.708a8,8,0,0,0-8.876,0L288,337.052V304ZM208,192v33.052l-11.562-7.708a8,8,0,0,0-8.876,0L176,225.052V192Zm-64,0h16v48a8,8,0,0,0,12.438,6.656L192,233.615l19.562,13.041A8,8,0,0,0,224,240V192h16v96H144Zm32,112h32v33.052l-11.562-7.708a8,8,0,0,0-8.876,0L176,337.052Zm-32,0h16v48a8,8,0,0,0,12.438,6.656L192,345.615l19.562,13.041A8,8,0,0,0,224,352V304h16v96H144ZM488,432H24V416H488Z"/>
    <path id="Path_1485" data-name="Path 1485" d="M321.979,277.268a8,8,0,0,0,12.042,0l56-64A8,8,0,0,0,384,200H368V144a8,8,0,0,0-8-8H296a8,8,0,0,0-8,8v56H272a8,8,0,0,0-6.021,13.268ZM296,216a8,8,0,0,0,8-8V152h48v56a8,8,0,0,0,8,8h6.37L328,259.851,289.63,216Z"/>
    <path id="Path_1486" data-name="Path 1486" d="M352,128a8,8,0,0,0,8-8V88a8,8,0,0,0-16,0v32A8,8,0,0,0,352,128Z"/>
    <path id="Path_1487" data-name="Path 1487" d="M328,128a8,8,0,0,0,8-8V104a8,8,0,0,0-16,0v16A8,8,0,0,0,328,128Z"/>
    <path id="Path_1488" data-name="Path 1488" d="M328,88a8,8,0,0,0,8-8V72a8,8,0,0,0-16,0v8A8,8,0,0,0,328,88Z"/>
    <path id="Path_1489" data-name="Path 1489" d="M304,128a8,8,0,0,0,8-8V88a8,8,0,0,0-16,0v32A8,8,0,0,0,304,128Z"/>
  </g>
</svg>
