<svg id="food-drink" xmlns="http://www.w3.org/2000/svg" width="53.226" height="55" viewBox="0 0 53.226 55">
  <circle id="Ellipse_82" data-name="Ellipse 82" cx="24.839" cy="24.839" r="24.839" transform="translate(0.887 2.661)" fill="#c6c5ca"/>
  <path id="Path_1423" data-name="Path 1423" d="M49,11H59.645v1.774A3.548,3.548,0,0,1,56.1,16.323H52.548A3.548,3.548,0,0,1,49,12.774Z" transform="translate(-7.307 -2.129)" fill="#e0e0e2"/>
  <path id="Path_1424" data-name="Path 1424" d="M53,17h3.548V30.306H53Z" transform="translate(-7.758 -2.806)" fill="#c6c5ca"/>
  <path id="Path_1425" data-name="Path 1425" d="M55.217,58.613H53.684a3.548,3.548,0,0,1-3.548-3.666L51.789,32h5.323l1.652,22.947a3.548,3.548,0,0,1-3.547,3.666Z" transform="translate(-7.435 -4.5)" fill="#ff9811"/>
  <path id="Path_1426" data-name="Path 1426" d="M12.984,9.984V25.064L8.548,27.726v4.435H5V2a8,8,0,0,1,7.984,7.984Z" transform="translate(-2.339 -1.113)" fill="#e0e0e2"/>
  <path id="Path_1427" data-name="Path 1427" d="M3,36h7.1V55.516a3.548,3.548,0,0,1-7.1,0Z" transform="translate(-2.113 -4.952)" fill="#ff9811"/>
  <circle id="Ellipse_83" data-name="Ellipse 83" cx="12.419" cy="12.419" r="12.419" transform="translate(13.306 15.081)" fill="#e0e0e2"/>
  <g id="Group_867" data-name="Group 867">
    <path id="Path_1428" data-name="Path 1428" d="M59.532,1a.887.887,0,0,0-.887.887v7.1H56.871v-7.1a.887.887,0,0,0-1.774,0v7.1H53.323v-7.1a.887.887,0,0,0-1.774,0v7.1H49.774v-7.1a.887.887,0,1,0-1.774,0v9.758a4.443,4.443,0,0,0,3.548,4.347V27.613a.887.887,0,0,0-.887.823L49.008,51.412A4.435,4.435,0,0,0,53.443,56h1.533a4.435,4.435,0,0,0,4.435-4.613L57.758,28.436a.887.887,0,0,0-.887-.823V15.992a4.443,4.443,0,0,0,3.548-4.347V1.887A.887.887,0,0,0,59.532,1Zm-1.9,50.476a2.661,2.661,0,0,1-2.661,2.75H53.443a2.661,2.661,0,0,1-2.661-2.716l1.592-22.122h3.671ZM53.323,27.613V16.081H55.1V27.613Zm5.323-15.968a2.661,2.661,0,0,1-2.661,2.661H52.435a2.661,2.661,0,0,1-2.661-2.661v-.887h8.871Z" transform="translate(-7.194 -1)" fill="#231f20"/>
    <path id="Path_1429" data-name="Path 1429" d="M53.887,46a.887.887,0,0,0-.887.887v7.1a.887.887,0,0,0,1.774,0v-7.1A.887.887,0,0,0,53.887,46Z" transform="translate(-7.758 -6.081)" fill="#231f20"/>
    <path id="Path_1430" data-name="Path 1430" d="M53.887,57a.887.887,0,0,0-.887.887v.887a.887.887,0,1,0,1.774,0v-.887A.887.887,0,0,0,53.887,57Z" transform="translate(-7.758 -7.323)" fill="#231f20"/>
    <path id="Path_1431" data-name="Path 1431" d="M5.887,46A.887.887,0,0,0,5,46.887v7.1a.887.887,0,0,0,1.774,0v-7.1A.887.887,0,0,0,5.887,46Z" transform="translate(-2.339 -6.081)" fill="#231f20"/>
    <path id="Path_1432" data-name="Path 1432" d="M5.887,57A.887.887,0,0,0,5,57.887v.887a.887.887,0,1,0,1.774,0v-.887A.887.887,0,0,0,5.887,57Z" transform="translate(-2.339 -7.323)" fill="#231f20"/>
    <path id="Path_1433" data-name="Path 1433" d="M10.887,16.871a.887.887,0,0,0,.887-.887v-7.1a.887.887,0,1,0-1.774,0v7.1A.887.887,0,0,0,10.887,16.871Z" transform="translate(-2.903 -1.79)" fill="#231f20"/>
    <path id="Path_1434" data-name="Path 1434" d="M10.887,21.661a.887.887,0,0,0,.887-.887v-.887a.887.887,0,1,0-1.774,0v.887A.887.887,0,0,0,10.887,21.661Z" transform="translate(-2.903 -3.032)" fill="#231f20"/>
    <path id="Path_1435" data-name="Path 1435" d="M9.984,31.161H9.1V28.115l4.005-2.4a.887.887,0,0,0,.43-.76V9.871a8.768,8.768,0,0,0-2.6-6.266A8.772,8.772,0,0,0,4.661,1a.887.887,0,0,0-.887.887V31.161H2.887A.887.887,0,0,0,2,32.048V51.564a4.435,4.435,0,0,0,8.871,0V32.048A.887.887,0,0,0,9.984,31.161ZM5.548,2.829a7.115,7.115,0,0,1,6.21,7.042V24.449l-4.005,2.4a.887.887,0,0,0-.43.76v3.548H5.548ZM9.1,51.564a2.661,2.661,0,1,1-5.323,0V32.935H9.1Z" transform="translate(-2 -1)" fill="#231f20"/>
    <path id="Path_1436" data-name="Path 1436" d="M42.613,30.306A13.306,13.306,0,1,0,29.306,43.613,13.306,13.306,0,0,0,42.613,30.306Zm-24.839,0A11.532,11.532,0,1,1,29.306,41.839,11.532,11.532,0,0,1,17.774,30.306Z" transform="translate(-3.581 -2.806)" fill="#231f20"/>
    <path id="Path_1437" data-name="Path 1437" d="M42.742,54.157a23.962,23.962,0,0,1-27.348-.016A.887.887,0,1,0,14.379,55.6a25.737,25.737,0,0,0,29.377.018.887.887,0,1,0-1.014-1.457Z" transform="translate(-3.355 -6.982)" fill="#231f20"/>
    <path id="Path_1438" data-name="Path 1438" d="M29.193,3A25.649,25.649,0,0,0,15.411,7a.889.889,0,0,0,.953,1.5,23.968,23.968,0,0,1,26.516.57.888.888,0,1,0,1.015-1.458A25.571,25.571,0,0,0,29.193,3Z" transform="translate(-3.468 -1.226)" fill="#231f20"/>
  </g>
</svg>
