<svg xmlns="http://www.w3.org/2000/svg" width="496" height="464.016" viewBox="0 0 496 464.016">
  <g id="_015-tree" data-name="015-tree" transform="translate(0 0)">
    <path id="Path_1673" data-name="Path 1673" d="M224,192.016a80,80,0,1,1-80-80,80,80,0,0,1,80,80Zm0,0" fill="#91cc04"/>
    <path id="Path_1674" data-name="Path 1674" d="M144,232.016l20-20" fill="#91cc04"/>
    <path id="Path_1675" data-name="Path 1675" d="M407.145,150.789a57.44,57.44,0,0,0-18.816-82.973,36.616,36.616,0,1,0-56.656,0,57.44,57.44,0,0,0-18.816,82.973,73.234,73.234,0,1,0,94.289,0Zm0,0" fill="#4e901e"/>
    <path id="Path_1676" data-name="Path 1676" d="M488,336.016v120H8v-120" fill="#c2dff6"/>
    <path id="Path_1677" data-name="Path 1677" d="M8,376.016H488v40H8Zm0,0" fill="#78b9eb"/>
    <g id="Group_878" data-name="Group 878">
      <path id="Path_1678" data-name="Path 1678" d="M8,344.016H448a8,8,0,0,0,0-16H368v-40.41a81.184,81.184,0,0,0,49.434-138.223,65.016,65.016,0,0,0,8.1-31.52,65.7,65.7,0,0,0-26.129-52.328,44.614,44.614,0,1,0-78.812,0,65.7,65.7,0,0,0-26.129,52.328,65.016,65.016,0,0,0,8.1,31.52A81.184,81.184,0,0,0,352,287.606v40.41H152v-48.41a88,88,0,1,0-16,0v48.41H8a8,8,0,0,0,0,16ZM294.77,206.782A65.129,65.129,0,0,1,318.008,156.9a8,8,0,0,0,1.4-10.7,49.147,49.147,0,0,1-8.941-28.336,49.681,49.681,0,0,1,25.152-43.09,8,8,0,0,0,2.238-12,28.241,28.241,0,0,1-6.473-18.109,28.617,28.617,0,1,1,57.234,0,28.241,28.241,0,0,1-6.473,18.109,8,8,0,0,0,2.238,12,49.681,49.681,0,0,1,25.152,43.09,49.147,49.147,0,0,1-8.941,28.336,8,8,0,0,0,1.4,10.7,65.215,65.215,0,1,1-107.2,49.879ZM72,192.016a72,72,0,1,1,80,71.527V235.329l17.656-17.656a8,8,0,0,0-11.312-11.312L152,212.7V200.016a8,8,0,0,0-16,0v63.527a72.088,72.088,0,0,1-64-71.527Zm0,0" fill="#231f20"/>
      <path id="Path_1679" data-name="Path 1679" d="M472,344.016h16a8,8,0,0,0,0-16H472a8,8,0,0,0,0,16Zm0,0" fill="#231f20"/>
      <path id="Path_1680" data-name="Path 1680" d="M488,448.016H48a8,8,0,0,0,0,16H488a8,8,0,0,0,0-16Zm0,0" fill="#231f20"/>
      <path id="Path_1681" data-name="Path 1681" d="M24,448.016H8a8,8,0,0,0,0,16H24a8,8,0,0,0,0-16Zm0,0" fill="#231f20"/>
      <path id="Path_1682" data-name="Path 1682" d="M472,360.016a56.784,56.784,0,0,0-32,9.055,45.087,45.087,0,0,1-48.1,0,60.994,60.994,0,0,0-63.949,0,45.065,45.065,0,0,1-48.066,0,60.964,60.964,0,0,0-63.941,0,41.481,41.481,0,0,1-24,6.945,41.472,41.472,0,0,1-24-6.945A56.74,56.74,0,0,0,136,360.016a56.753,56.753,0,0,0-32,9.055,41.51,41.51,0,0,1-24,6.945,41.481,41.481,0,0,1-24-6.945,56.784,56.784,0,0,0-32-9.055,8,8,0,0,0,0,16,41.477,41.477,0,0,1,24,6.941,56.788,56.788,0,0,0,32,9.059,56.726,56.726,0,0,0,32-9.059,41.506,41.506,0,0,1,24-6.941,41.506,41.506,0,0,1,24,6.941,56.788,56.788,0,0,0,32,9.059,56.723,56.723,0,0,0,31.961-9.059,45.072,45.072,0,0,1,48.07,0,60.94,60.94,0,0,0,63.938,0,45.085,45.085,0,0,1,48.078,0,61,61,0,0,0,64,0A41.6,41.6,0,0,1,472,376.016a8,8,0,0,0,0-16Zm0,0" fill="#231f20"/>
      <path id="Path_1683" data-name="Path 1683" d="M472,400.016a56.784,56.784,0,0,0-32,9.055,45.087,45.087,0,0,1-48.1,0,60.994,60.994,0,0,0-63.949,0,45.065,45.065,0,0,1-48.066,0,60.964,60.964,0,0,0-63.941,0,41.481,41.481,0,0,1-24,6.945,41.472,41.472,0,0,1-24-6.945A56.74,56.74,0,0,0,136,400.016a56.753,56.753,0,0,0-32,9.055,41.51,41.51,0,0,1-24,6.945,41.481,41.481,0,0,1-24-6.945,56.784,56.784,0,0,0-32-9.055,8,8,0,0,0,0,16,41.477,41.477,0,0,1,24,6.941,56.788,56.788,0,0,0,32,9.059,56.726,56.726,0,0,0,32-9.059,41.506,41.506,0,0,1,24-6.941,41.506,41.506,0,0,1,24,6.941,56.788,56.788,0,0,0,32,9.059,56.723,56.723,0,0,0,31.961-9.059,45.072,45.072,0,0,1,48.07,0,60.94,60.94,0,0,0,63.938,0,45.085,45.085,0,0,1,48.078,0,61,61,0,0,0,64,0A41.6,41.6,0,0,1,472,416.016a8,8,0,0,0,0-16Zm0,0" fill="#231f20"/>
    </g>
  </g>
</svg>
