<svg id="miscellaneous" xmlns="http://www.w3.org/2000/svg" width="55" height="55" viewBox="0 0 55 55">
  <path id="Path_1626" data-name="Path 1626" d="M40.166,30.177a14.185,14.185,0,0,1-1.1,2.617l2.36,2.359-6.272,6.272-2.359-2.36a14.184,14.184,0,0,1-2.617,1.1v3.318H21.306V40.166a14.185,14.185,0,0,1-2.617-1.1l-2.359,2.36-6.272-6.272,2.36-2.359a14.185,14.185,0,0,1-1.1-2.617H8V21.306h3.318a14.185,14.185,0,0,1,1.1-2.617l-2.36-2.359,6.272-6.272,2.359,2.36a14.184,14.184,0,0,1,2.617-1.1V8h8.871v3.318a14.185,14.185,0,0,1,2.617,1.1l2.359-2.36,6.272,6.272-2.36,2.359a14.185,14.185,0,0,1,1.1,2.617h3.318v8.871Zm0,0" transform="translate(-7.113 -7.113)" fill="#c6c5ca"/>
  <path id="Path_1627" data-name="Path 1627" d="M105.742,96.871A8.871,8.871,0,1,1,96.871,88,8.871,8.871,0,0,1,105.742,96.871Zm0,0" transform="translate(-78.242 -78.242)" fill="#1a6fb0"/>
  <path id="Path_1628" data-name="Path 1628" d="M124.419,118.21a6.21,6.21,0,1,1-6.21-6.21A6.209,6.209,0,0,1,124.419,118.21Zm0,0" transform="translate(-99.581 -99.581)" fill="#57565c"/>
  <path id="Path_1629" data-name="Path 1629" d="M248,64l2.218,2.218" transform="translate(-220.5 -56.903)" fill="#acabb1"/>
  <path id="Path_1630" data-name="Path 1630" d="M64,80.887,64.887,80" transform="translate(-56.903 -71.129)" fill="#acabb1"/>
  <path id="Path_1631" data-name="Path 1631" d="M264.887,256l-.887.887" transform="translate(-234.726 -227.613)" fill="#acabb1"/>
  <path id="Path_1632" data-name="Path 1632" d="M64,248l1.774,1.774" transform="translate(-56.903 -220.5)" fill="#acabb1"/>
  <path id="Path_1633" data-name="Path 1633" d="M8,464H61.226v2.661H8Zm0,0" transform="translate(-7.113 -412.548)" fill="#57565c"/>
  <path id="Path_1634" data-name="Path 1634" d="M229.323,362.661A2.661,2.661,0,1,1,226.661,360,2.661,2.661,0,0,1,229.323,362.661Zm0,0" transform="translate(-199.161 -320.081)" fill="#1a6fb0"/>
  <path id="Path_1635" data-name="Path 1635" d="M141.323,386.661A2.661,2.661,0,1,1,138.661,384,2.661,2.661,0,0,1,141.323,386.661Zm0,0" transform="translate(-120.919 -341.419)" fill="#1a6fb0"/>
  <path id="Path_1636" data-name="Path 1636" d="M61.323,370.661A2.661,2.661,0,1,1,58.661,368,2.661,2.661,0,0,1,61.323,370.661Zm0,0" transform="translate(-49.79 -327.194)" fill="#1a6fb0"/>
  <path id="Path_1637" data-name="Path 1637" d="M317.323,314.661A2.661,2.661,0,1,1,314.661,312,2.661,2.661,0,0,1,317.323,314.661Zm0,0" transform="translate(-277.403 -277.403)" fill="#1a6fb0"/>
  <path id="Path_1638" data-name="Path 1638" d="M397.323,234.661A2.661,2.661,0,1,1,394.661,232,2.661,2.661,0,0,1,397.323,234.661Zm0,0" transform="translate(-348.532 -206.274)" fill="#1a6fb0"/>
  <path id="Path_1639" data-name="Path 1639" d="M64,347.344V344h3.548v3.344" transform="translate(-56.903 -305.855)" fill="#acabb1"/>
  <path id="Path_1640" data-name="Path 1640" d="M67.548,409.84v6.006H64V409.84" transform="translate(-56.903 -364.394)" fill="#acabb1"/>
  <path id="Path_1641" data-name="Path 1641" d="M147.548,425.84v4.231H144V425.84" transform="translate(-128.032 -378.62)" fill="#acabb1"/>
  <path id="Path_1642" data-name="Path 1642" d="M144,363.344V360h3.548v3.344" transform="translate(-128.032 -320.081)" fill="#acabb1"/>
  <path id="Path_1643" data-name="Path 1643" d="M232,339.344V336h3.548v3.344" transform="translate(-206.274 -298.742)" fill="#acabb1"/>
  <path id="Path_1644" data-name="Path 1644" d="M235.548,401.84v6.893H232V401.84" transform="translate(-206.274 -357.281)" fill="#acabb1"/>
  <path id="Path_1645" data-name="Path 1645" d="M320,284.231V280h3.548v4.231" transform="translate(-284.516 -248.951)" fill="#acabb1"/>
  <path id="Path_1646" data-name="Path 1646" d="M323.548,353.84v12.215H320V353.84" transform="translate(-284.516 -314.604)" fill="#acabb1"/>
  <path id="Path_1647" data-name="Path 1647" d="M400,197.118V192h3.548v5.119" transform="translate(-355.645 -170.709)" fill="#acabb1"/>
  <path id="Path_1648" data-name="Path 1648" d="M403.548,273.84v21.086H400V273.84" transform="translate(-355.645 -243.475)" fill="#acabb1"/>
  <g id="Group_875" data-name="Group 875">
    <path id="Path_1649" data-name="Path 1649" d="M.887,23.952H3.565a15.053,15.053,0,0,0,.654,1.561l-1.9,1.9a.888.888,0,0,0,0,1.254L8.59,34.937a.912.912,0,0,0,1.254,0l1.9-1.9a14.747,14.747,0,0,0,1.561.655v2.679a.887.887,0,0,0,.887.887h8.871a.887.887,0,0,0,.887-.887V33.692a14.73,14.73,0,0,0,1.561-.653l1.9,1.9a.888.888,0,0,0,1.254,0l6.272-6.272a.887.887,0,0,0,0-1.254l-1.9-1.9a15.054,15.054,0,0,0,.654-1.561h2.678a.887.887,0,0,0,.887-.887V14.194a.887.887,0,0,0-.887-.887H33.693a15.053,15.053,0,0,0-.654-1.561l1.9-1.9a.888.888,0,0,0,0-1.254L28.668,2.321a.912.912,0,0,0-1.254,0l-1.9,1.9a14.731,14.731,0,0,0-1.561-.653V.887A.887.887,0,0,0,23.065,0H14.194a.887.887,0,0,0-.887.887V3.566a14.731,14.731,0,0,0-1.561.653l-1.9-1.9a.888.888,0,0,0-1.254,0L2.321,8.59a.887.887,0,0,0,0,1.254l1.9,1.9a15.054,15.054,0,0,0-.654,1.561H.887A.887.887,0,0,0,0,14.194v8.871a.887.887,0,0,0,.887.887Zm.887-8.871H4.205a.887.887,0,0,0,.847-.621A13.4,13.4,0,0,1,6.083,12a.887.887,0,0,0-.151-1.053L4.2,9.217,9.217,4.2l1.732,1.733A.887.887,0,0,0,12,6.083,13.328,13.328,0,0,1,14.46,5.057a.888.888,0,0,0,.621-.852V1.774h7.1V4.205a.887.887,0,0,0,.621.847,13.315,13.315,0,0,1,2.453,1.031.887.887,0,0,0,1.054-.15L28.041,4.2l5.018,5.018-1.733,1.732A.887.887,0,0,0,31.175,12a13.4,13.4,0,0,1,1.031,2.457.887.887,0,0,0,.847.621h2.431v7.1H33.053a.887.887,0,0,0-.847.621,13.373,13.373,0,0,1-1.031,2.454.887.887,0,0,0,.151,1.053l1.733,1.733-5.018,5.02-1.732-1.733a.887.887,0,0,0-1.054-.15A13.321,13.321,0,0,1,22.8,32.206a.887.887,0,0,0-.621.847v2.431h-7.1V33.053a.887.887,0,0,0-.621-.847,13.315,13.315,0,0,1-2.453-1.031.887.887,0,0,0-1.054.15L9.217,33.059,4.2,28.041l1.733-1.732a.887.887,0,0,0,.151-1.053A13.366,13.366,0,0,1,5.057,22.8a.888.888,0,0,0-.852-.621H1.774Zm0,0" transform="translate(0 0)" fill="#231f20"/>
    <path id="Path_1650" data-name="Path 1650" d="M89.758,99.516A9.758,9.758,0,1,0,80,89.758,9.758,9.758,0,0,0,89.758,99.516Zm0-17.742a7.984,7.984,0,1,1-7.984,7.984A7.984,7.984,0,0,1,89.758,81.774Zm0,0" transform="translate(-71.129 -71.129)" fill="#231f20"/>
    <path id="Path_1651" data-name="Path 1651" d="M111.1,118.194a7.1,7.1,0,1,0-7.1-7.1A7.1,7.1,0,0,0,111.1,118.194Zm0-12.419a5.323,5.323,0,1,1-5.323,5.323A5.323,5.323,0,0,1,111.1,105.774Zm0,0" transform="translate(-92.468 -92.468)" fill="#231f20"/>
    <path id="Path_1652" data-name="Path 1652" d="M296.887,149.323a.887.887,0,0,0,.887-.887v-3.548a.887.887,0,1,0-1.774,0v3.548A.887.887,0,0,0,296.887,149.323Zm0,0" transform="translate(-263.177 -128.032)" fill="#231f20"/>
    <path id="Path_1653" data-name="Path 1653" d="M25.774,144.887a.887.887,0,1,0-1.774,0v.887a.887.887,0,0,0,1.774,0Zm0,0" transform="translate(-21.339 -128.032)" fill="#231f20"/>
    <path id="Path_1654" data-name="Path 1654" d="M242.565,59.82a.887.887,0,0,0,1.254-1.254L241.6,56.347a.887.887,0,0,0-1.254,1.254Zm0,0" transform="translate(-213.475 -49.878)" fill="#231f20"/>
    <path id="Path_1655" data-name="Path 1655" d="M160.887,33.774h.887a.887.887,0,1,0,0-1.774h-.887a.887.887,0,1,0,0,1.774Zm0,0" transform="translate(-142.258 -28.452)" fill="#231f20"/>
    <path id="Path_1656" data-name="Path 1656" d="M146.661,296h-1.774a.887.887,0,1,0,0,1.774h1.774a.887.887,0,1,0,0-1.774Zm0,0" transform="translate(-128.032 -263.177)" fill="#231f20"/>
    <path id="Path_1657" data-name="Path 1657" d="M56.888,74.749a.887.887,0,0,0,.627-.26L58.4,73.6a.887.887,0,0,0-1.254-1.254l-.887.887a.887.887,0,0,0,.627,1.514Zm0,0" transform="translate(-49.791 -64.104)" fill="#231f20"/>
    <path id="Path_1658" data-name="Path 1658" d="M257.06,248.348l-.887.887a.887.887,0,1,0,1.254,1.254l.887-.887a.887.887,0,0,0-1.254-1.254Zm0,0" transform="translate(-227.526 -220.588)" fill="#231f20"/>
    <path id="Path_1659" data-name="Path 1659" d="M58.122,243.376a.887.887,0,0,0,1.254-1.254L57.6,240.347a.887.887,0,0,0-1.254,1.254Zm0,0" transform="translate(-49.878 -213.474)" fill="#231f20"/>
    <path id="Path_1660" data-name="Path 1660" d="M54.113,214.161H48.79V194.306a3.484,3.484,0,0,0,0-4.645v-4.774A.887.887,0,0,0,47.9,184H44.355a.887.887,0,0,0-.887.887v4.774a3.484,3.484,0,0,0,0,4.645v19.855H39.919V203.177a3.484,3.484,0,0,0,0-4.645v-3.887a.887.887,0,0,0-.887-.887H35.484a.887.887,0,0,0-.887.887v3.887a3.484,3.484,0,0,0,0,4.645v10.984H30.161V208.5a3.484,3.484,0,0,0,0-4.645v-3a.887.887,0,0,0-.887-.887H25.726a.887.887,0,0,0-.887.887v3a3.484,3.484,0,0,0,0,4.645v5.661H20.4v-3a3.484,3.484,0,0,0,0-4.645v-3a.887.887,0,0,0-.887-.887H15.968a.887.887,0,0,0-.887.887v3a3.484,3.484,0,0,0,0,4.645v3H11.532v-4.774a3.484,3.484,0,0,0,0-4.645v-3a.887.887,0,0,0-.887-.887H7.1a.887.887,0,0,0-.887.887v3a3.484,3.484,0,0,0,0,4.645v4.774H.887a.887.887,0,0,0-.887.887v2.661a.887.887,0,0,0,.887.887H54.113a.887.887,0,0,0,.887-.887v-2.661A.887.887,0,0,0,54.113,214.161Zm-9.758-22.177a1.774,1.774,0,1,1,1.774,1.774A1.774,1.774,0,0,1,44.355,191.984Zm2.661-6.21v2.787a3.185,3.185,0,0,0-1.774,0v-2.787Zm-1.774,9.632a3.185,3.185,0,0,0,1.774,0v18.755H45.242Zm-9.758,5.449a1.774,1.774,0,1,1,1.774,1.774A1.774,1.774,0,0,1,35.484,200.855Zm2.661-5.323v1.9a3.185,3.185,0,0,0-1.774,0v-1.9Zm-1.774,8.745a3.185,3.185,0,0,0,1.774,0v9.884H36.371Zm-10.645,1.9a1.774,1.774,0,1,1,1.774,1.774A1.774,1.774,0,0,1,25.726,206.177Zm2.661-4.435v1.013a3.184,3.184,0,0,0-1.774,0v-1.013ZM26.613,209.6a3.184,3.184,0,0,0,1.774,0v4.562H26.613Zm-10.645-.761a1.774,1.774,0,1,1,1.774,1.774A1.774,1.774,0,0,1,15.968,208.838Zm2.661-4.435v1.013a3.185,3.185,0,0,0-1.774,0V204.4Zm-1.774,7.858a3.185,3.185,0,0,0,1.774,0v1.9H16.855Zm-9.758-5.2a1.774,1.774,0,1,1,1.774,1.774A1.774,1.774,0,0,1,7.1,207.064Zm2.661-4.435v1.013a3.185,3.185,0,0,0-1.774,0v-1.013Zm-1.774,7.858a3.184,3.184,0,0,0,1.774,0v3.674H7.984Zm45.242,6.336H1.774v-.887H53.226Zm0,0" transform="translate(0 -163.597)" fill="#231f20"/>
  </g>
</svg>
